<svg width="31" height="30" viewBox="0 0 31 30" fill="none" xmlns="http://www.w3.org/2000/svg">
<path d="M1.09838 9.36388C1.48652 9.36388 1.69677 9.13747 1.69677 8.74933V4.39892C1.69677 2.2965 2.7965 1.19677 4.89892 1.19677H9.2655C9.65364 1.19677 9.88005 0.986523 9.88005 0.598383C9.88005 0.210243 9.65364 0 9.2655 0H4.86658C2.00404 0 0.5 1.48787 0.5 4.33423V8.74933C0.5 9.13747 0.710243 9.36388 1.09838 9.36388ZM29.9016 9.36388C30.2898 9.36388 30.5 9.13747 30.5 8.74933V4.33423C30.5 1.52022 29.0121 0 26.1496 0H21.7345C21.3464 0 21.1199 0.210243 21.1199 0.598383C21.1199 0.986523 21.3464 1.19677 21.7345 1.19677H26.1011C28.1388 1.19677 29.3032 2.2965 29.3032 4.39892V8.74933C29.3032 9.13747 29.5135 9.36388 29.9016 9.36388ZM14.1819 17.1752H14.3275C15.6375 17.1752 16.3005 16.5283 16.3005 15.2022V10.2372C16.3005 9.86523 16.1226 9.68733 15.7507 9.68733C15.3949 9.68733 15.2008 9.86523 15.2008 10.2372V15.3477C15.2008 15.7844 14.845 16.0593 14.4892 16.0593H13.9394C13.6321 16.0593 13.4057 16.2857 13.4057 16.593C13.4057 16.9811 13.6482 17.1752 14.1819 17.1752ZM9.68598 13.4555C10.1712 13.4555 10.4784 13.1482 10.4784 12.6631V10.5121C10.4784 10.0108 10.1712 9.7035 9.68598 9.7035C9.21698 9.7035 8.9097 10.027 8.9097 10.5121V12.6631C8.9097 13.1482 9.21698 13.4555 9.68598 13.4555ZM21.1685 13.4555C21.6375 13.4555 21.9447 13.1482 21.9447 12.6631V10.5121C21.9447 10.027 21.6375 9.7035 21.1685 9.7035C20.6833 9.7035 20.3598 10.0108 20.3598 10.5121V12.6631C20.3598 13.1482 20.6833 13.4555 21.1685 13.4555ZM15.3625 22.124C17.1415 22.124 18.9205 21.3801 20.2305 20.0701C20.3275 19.9892 20.4245 19.8437 20.4245 19.6334C20.4245 19.31 20.1819 19.0997 19.8908 19.0997C19.7129 19.0997 19.5674 19.1482 19.3571 19.3747C18.3868 20.345 16.8827 21.0404 15.3625 21.0404C13.8423 21.0404 12.3544 20.345 11.3679 19.3747C11.1739 19.1644 11.0283 19.0997 10.8342 19.0997C10.5431 19.0997 10.3005 19.31 10.3005 19.6334C10.3005 19.8275 10.3976 19.973 10.4946 20.0701C11.7722 21.3962 13.5836 22.124 15.3625 22.124ZM4.86658 30H9.2655C9.65364 30 9.88005 29.7898 9.88005 29.4016C9.88005 29.0135 9.65364 28.8032 9.2655 28.8032H4.89892C2.7965 28.8032 1.69677 27.7035 1.69677 25.5849V21.2507C1.69677 20.8625 1.48652 20.6199 1.09838 20.6199C0.710243 20.6199 0.5 20.8625 0.5 21.2507V25.6496C0.5 28.5121 2.00404 30 4.86658 30ZM21.7345 30H26.1496C29.0121 30 30.5 28.4636 30.5 25.6496V21.2507C30.5 20.8625 30.2898 20.6199 29.9016 20.6199C29.5135 20.6199 29.3032 20.8625 29.3032 21.2507V25.5849C29.3032 27.7035 28.1388 28.8032 26.1011 28.8032H21.7345C21.3464 28.8032 21.1199 29.0135 21.1199 29.4016C21.1199 29.7898 21.3464 30 21.7345 30Z" fill="#52CBAA"/>
</svg>
