<svg width="25" height="18" viewBox="0 0 25 18" fill="none" xmlns="http://www.w3.org/2000/svg">
<path fill-rule="evenodd" clip-rule="evenodd" d="M6.9269 1.70419C6.83003 1.7987 6.72599 1.90229 6.58705 2.04204C6.58705 2.04204 4.2982 4.33244 4.29055 4.33905C4.21954 4.40641 4.16045 4.46401 4.09919 4.5249C4.07104 4.55305 4.046 4.5778 3.99261 4.63032C3.9467 4.67548 3.92545 4.69645 3.89899 4.72277L1.82949 6.7946C1.78508 6.84067 1.74697 6.87947 1.69796 6.9287L1.64217 6.98478C1.57898 7.04809 1.52899 7.0996 1.45834 7.17329C1.29627 7.33321 1.13194 7.51406 0.977196 7.70372C0.833415 7.85703 0.717338 8.03424 0.634231 8.22748L0.612272 8.28594C0.462576 8.74937 0.462576 9.24816 0.612272 9.71159L0.635197 9.77229C0.718934 9.96505 0.835628 10.1416 0.979954 10.2941C1.13404 10.4835 1.29826 10.6644 1.47189 10.836C1.50841 10.8754 1.56223 10.9303 1.63412 11.0022C1.68377 11.0519 1.70513 11.0733 1.73175 11.1001C1.76613 11.1348 1.79585 11.1651 1.82344 11.1937L3.89839 13.2725C4.0012 13.3753 4.04722 13.421 4.12955 13.5013C4.19723 13.5682 4.23729 13.6072 4.31146 13.6756L6.5891 15.9565C6.75981 16.1273 6.8364 16.2035 6.93293 16.2983C7.05841 16.4239 7.14112 16.505 7.27032 16.6313C7.319 16.6826 7.33724 16.7015 7.36219 16.7247C7.65378 17.0177 8.00944 17.2767 8.39889 17.4754C8.78873 17.6717 9.20205 17.8081 9.62862 17.8818C10.0283 17.9476 10.4271 17.9828 10.8269 17.9878C10.9964 17.9916 11.1665 17.9939 11.3346 17.9945L11.7348 17.9945H19.1805C19.335 17.9945 19.4882 17.9923 19.7006 17.9877C20.098 17.9829 20.5008 17.9475 20.8992 17.8821C21.3343 17.8069 21.7505 17.6692 22.1397 17.4726C22.5341 17.2732 22.894 17.0123 23.206 16.6997C23.5167 16.3878 23.7765 16.0301 23.9767 15.6388C24.1748 15.2444 24.312 14.8274 24.3858 14.3971C24.4518 13.9938 24.4869 13.5912 24.4917 13.1878C24.4947 13.0887 24.4961 13.0014 24.4984 12.8071L24.5 12.6828L24.5001 12.0697V5.28228L24.4989 5.1749C24.4976 5.05516 24.497 5.00286 24.4958 4.93575C24.4947 4.87282 24.4934 4.81509 24.4918 4.75948C24.4873 4.37159 24.4525 3.97263 24.388 3.57797C24.3138 3.14595 24.1778 2.7325 23.9836 2.34562C23.7825 1.95254 23.5244 1.59745 23.2163 1.28846C22.9081 0.978056 22.551 0.718337 22.1595 0.520145C21.7732 0.324766 21.3603 0.187962 20.934 0.114105C20.5325 0.0487977 20.1336 0.0139583 19.7338 0.00872262C19.5528 0.00433858 19.3857 0.00199973 19.2251 0.00199973C19.063 0.000336839 18.9289 0 18.6279 0H11.9324C11.6336 0 11.4986 0.000338889 11.3292 0.00203305C11.1756 0.00199973 11.0091 0.00432366 10.8181 0.00885285C10.4259 0.0140027 10.0277 0.0488485 9.63367 0.112975C9.2003 0.188085 8.78703 0.324739 8.40046 0.519647C8.0081 0.719534 7.65225 0.978809 7.34371 1.28905C7.32941 1.30311 7.31895 1.31412 7.23159 1.40737C7.12322 1.51013 7.02357 1.60718 6.9269 1.70419ZM4.33563 4.30126L4.33809 4.29935C4.3351 4.30159 4.33302 4.30316 4.33045 4.30529L4.33563 4.30126ZM7.53212 15.0142L5.23011 12.7089C5.23011 12.7089 5.18419 12.6671 5.17941 12.663C5.14389 12.6291 5.11334 12.5992 5.03702 12.5238C4.98193 12.4704 4.93907 12.4278 4.84149 12.3302L2.77486 10.2599C2.75062 10.2347 2.71686 10.2002 2.67856 10.1616C2.65011 10.1329 2.62713 10.1099 2.5768 10.0596C2.51351 9.99626 2.46808 9.94987 2.42572 9.90489C2.26389 9.74434 2.12689 9.59277 1.99874 9.43386L1.95482 9.38461C1.92091 9.35018 1.89252 9.31079 1.87059 9.26786C1.82055 9.0915 1.82067 8.90464 1.87097 8.72833C1.89293 8.68463 1.92148 8.64449 1.95567 8.60935L1.99605 8.56386C2.12491 8.40463 2.26248 8.25264 2.40815 8.10862C2.48619 8.02757 2.5313 7.98108 2.56542 7.9465C2.60857 7.90355 2.60864 7.90348 2.64257 7.86944L2.64259 7.86943L2.64274 7.86928C2.69696 7.81481 2.74033 7.77066 2.78196 7.7273L4.84075 5.66636C4.86335 5.64388 4.88249 5.625 4.9366 5.57178C4.98337 5.52577 5.01045 5.499 5.04046 5.46899C5.0869 5.42283 5.13257 5.37819 5.17743 5.33519C5.18728 5.32695 5.19876 5.31631 5.23143 5.28602L5.23143 5.28601L7.53143 2.98302C7.6672 2.84645 7.76704 2.74705 7.86478 2.6516C7.95876 2.55738 8.04948 2.46903 8.1454 2.37805C8.16667 2.3582 8.17938 2.34492 8.23809 2.28262L8.28451 2.23358C8.49799 2.01897 8.73905 1.84334 9.00315 1.70878C9.26983 1.57433 9.5576 1.47917 9.85463 1.42767C10.1769 1.37526 10.5094 1.34617 10.8427 1.34176C11.0309 1.33733 11.1872 1.33515 11.3359 1.33515C11.506 1.33348 11.638 1.33315 11.9324 1.33315H18.6279C18.9244 1.33315 19.0556 1.33348 19.2184 1.33512C19.374 1.33515 19.5307 1.33734 19.7091 1.34162C20.0503 1.34613 20.3836 1.37524 20.7133 1.42883C21.0025 1.47899 21.2894 1.57402 21.5576 1.70966C21.8216 1.84333 22.0626 2.01863 22.2713 2.22878C22.4826 2.44069 22.6588 2.68312 22.7945 2.94831C22.9274 3.21318 23.0221 3.50121 23.0732 3.79843C23.1261 4.12179 23.155 4.45412 23.159 4.78723C23.1607 4.84881 23.1619 4.90103 23.1629 4.95867C23.1639 5.02195 23.1646 5.07237 23.1658 5.18924L23.167 5.29027L23.1669 5.87986V12.668L23.1654 12.7914C23.1632 12.9778 23.1618 13.0598 23.1589 13.1601C23.1546 13.5086 23.1253 13.8445 23.071 14.1768C23.0203 14.4722 22.9245 14.7635 22.7876 15.036C22.6526 15.2998 22.4746 15.545 22.262 15.7584C22.0506 15.9702 21.806 16.1474 21.5383 16.2829C21.2673 16.4198 20.9772 16.5157 20.6778 16.5675C20.3508 16.6211 20.0147 16.6506 19.6779 16.6548C19.468 16.6593 19.3234 16.6614 19.1805 16.6614H11.3372C11.18 16.6608 11.0179 16.6586 10.8499 16.6549C10.5108 16.6506 10.1788 16.6213 9.85037 16.5673C9.55858 16.5168 9.27084 16.4219 9.00168 16.2863C8.74032 16.1529 8.49872 15.977 8.28899 15.7667C8.27643 15.7544 8.25903 15.7364 8.237 15.7132L8.23427 15.7103C8.18179 15.655 8.16995 15.6425 8.15754 15.6306L8.14255 15.6165C8.06634 15.545 7.99187 15.472 7.87141 15.3515C7.77443 15.2562 7.6997 15.1818 7.53212 15.0142ZM12.3128 12.525C12.2587 12.5786 12.1939 12.6223 12.1208 12.6526C11.8974 12.7451 11.6402 12.694 11.4692 12.523C11.3566 12.4108 11.2934 12.2584 11.2934 12.0995C11.2934 11.9406 11.3566 11.7883 11.4692 11.6761V11.6774C11.5013 11.6452 11.5365 11.6173 11.574 11.5938L14.1688 8.99576L11.4692 6.29914L11.4778 6.2905C11.424 6.23636 11.3802 6.17146 11.3499 6.0982C11.2573 5.87477 11.3085 5.61759 11.4795 5.44659C11.5917 5.33365 11.7444 5.27014 11.9036 5.27014C12.0628 5.27014 12.2155 5.33365 12.3277 5.44659H12.3251C12.354 5.47556 12.3796 5.50702 12.4016 5.54036L15.0132 8.15034L17.6322 5.52817C17.6524 5.49888 17.6756 5.47099 17.7017 5.44492C17.8727 5.27391 18.1298 5.22274 18.3533 5.31529C18.5767 5.40783 18.7224 5.62586 18.7224 5.8677C18.7224 6.02852 18.658 6.17882 18.5491 6.28868L18.5559 6.29547L15.859 8.99562L18.4689 11.6038C18.501 11.6253 18.5311 11.65 18.5589 11.6777L18.5575 11.6791C18.7286 11.8501 18.7797 12.1072 18.6872 12.3307C18.5946 12.5541 18.3766 12.6998 18.1348 12.6998C17.9739 12.6998 17.8236 12.6354 17.7138 12.5265L17.7087 12.5316L15.0149 9.84084L12.3234 12.5356L12.3128 12.525Z" fill="#212529"/>
</svg>
